<svg width="60" height="61" viewBox="0 0 60 61" fill="none" xmlns="http://www.w3.org/2000/svg">
<rect y="0.5" width="60" height="60" rx="30" fill="#323232"/>
<path d="M17 32.45L23.5 36.35V43.5M17 32.45L23.5 28.55L30 32.45M17 32.45V39.6L23.5 43.5M30 32.45V39.6M30 32.45L36.5 36.35M30 32.45L36.5 28.55M30 32.45V25.3M30 39.6L23.5 43.5M30 39.6L36.5 43.5M23.5 36.4085L30 32.4695M36.5 36.35V43.5M36.5 36.35L43 32.45M36.5 28.55L43 32.45M36.5 28.55V21.4M43 32.45V39.6L36.5 43.5M30 25.3L23.5 21.4L30 17.5L36.5 21.4M30 25.3L36.5 21.4M23.5 21.439V28.5305" stroke="#EEF0E5" stroke-width="2" stroke-linecap="round" stroke-linejoin="round"/>
</svg>
