<svg width="60" height="61" viewBox="0 0 60 61" fill="none" xmlns="http://www.w3.org/2000/svg">
<rect y="0.500732" width="60" height="59.9986" rx="29.9993" fill="#323232"/>
<path d="M33.7143 13.7858V21.2143C33.7143 21.7069 33.9099 22.1793 34.2582 22.5275C34.6065 22.8758 35.0789 23.0715 35.5714 23.0715H43M33.7143 13.7858H20.7143C19.7292 13.7858 18.7845 14.1771 18.0879 14.8737C17.3913 15.5702 17 16.515 17 17.5001V43.5001C17 44.4851 17.3913 45.4299 18.0879 46.1264C18.7845 46.823 19.7292 47.2143 20.7143 47.2143H39.2857C40.2708 47.2143 41.2155 46.823 41.9121 46.1264C42.6087 45.4299 43 44.4851 43 43.5001V23.0715M33.7143 13.7858L43 23.0715M24.4286 34.2143V34.2329M30 34.2143V34.2329M35.5714 34.2143V34.2329" stroke="white" stroke-width="2.5" stroke-linecap="round" stroke-linejoin="round"/>
</svg>
