<svg width="256" height="7" viewBox="0 0 256 7" fill="none" xmlns="http://www.w3.org/2000/svg">
<path d="M0.317342 3.5C0.317342 4.97276 1.51125 6.16667 2.98401 6.16667C4.45677 6.16667 5.65068 4.97276 5.65068 3.5C5.65068 2.02724 4.45677 0.833333 2.98401 0.833333C1.51125 0.833333 0.317342 2.02724 0.317342 3.5ZM250.349 3.5C250.349 4.97276 251.543 6.16667 253.016 6.16667C254.489 6.16667 255.683 4.97276 255.683 3.5C255.683 2.02724 254.489 0.833333 253.016 0.833333C251.543 0.833333 250.349 2.02724 250.349 3.5ZM2.98401 4H5.96058V3H2.98401V4ZM11.9137 4H17.8669V3H11.9137V4ZM23.82 4H29.7731V3H23.82V4ZM35.7263 4H41.6794V3H35.7263V4ZM47.6326 4H53.5857V3H47.6326V4ZM59.5389 4H65.492V3H59.5389V4ZM71.4452 4L77.3983 4V3H71.4452V4ZM83.3514 4H89.3046V3H83.3514V4ZM95.2577 4H101.211V3H95.2577V4ZM107.164 4H113.117V3H107.164V4ZM119.07 4H125.023V3H119.07V4ZM130.977 4H136.93V3H130.977V4ZM142.883 4H148.836V3H142.883V4ZM154.789 4H160.742V3H154.789V4ZM166.695 4H172.649V3H166.695V4ZM178.602 4H184.555V3H178.602V4ZM190.508 4H196.461V3L190.508 3V4ZM202.414 4H208.367V3H202.414V4ZM214.321 4H220.274V3H214.321V4ZM226.227 4H232.18V3H226.227V4ZM238.133 4H244.086V3H238.133V4ZM250.039 4H253.016V3H250.039V4Z" fill="black"/>
</svg>
