<svg width="451" height="70" viewBox="0 0 451 70" fill="none" xmlns="http://www.w3.org/2000/svg">
<path d="M13.4727 69C11.8434 69 10.2767 68.8433 8.77273 68.53C7.26873 68.2167 5.92139 67.6527 4.73073 66.838C3.60273 66.0233 2.66273 64.8953 1.91073 63.454C1.22139 62.0127 0.876727 60.1327 0.876727 57.814V12.036C0.876727 9.90533 1.31539 8.11933 2.19273 6.678C3.07006 5.174 4.16673 4.01466 5.48273 3.2C6.79873 2.32266 8.24006 1.696 9.80673 1.32C11.4361 0.943998 12.9714 0.755999 14.4127 0.755999V69H13.4727ZM15.3527 29.896H22.9667C22.9667 32.4653 22.4967 34.6273 21.5567 36.382C20.6167 38.074 18.7054 38.92 15.8227 38.92H15.3527V29.896ZM23.6247 16.454C23.6247 15.7647 23.5621 15.0753 23.4367 14.386C23.3741 13.634 23.1861 12.976 22.8727 12.412C22.6221 11.7853 22.2147 11.284 21.6507 10.908C21.1494 10.532 20.4287 10.344 19.4887 10.344C18.2981 10.344 17.2954 10.72 16.4807 11.472C16.1047 10.4693 15.9167 9.56066 15.9167 8.746C15.9167 7.74333 16.0734 6.772 16.3867 5.832C16.7627 4.82933 17.3267 3.952 18.0787 3.2C18.8307 2.448 19.7707 1.85266 20.8987 1.414C22.0894 0.912662 23.5307 0.661995 25.2227 0.661995C27.1027 0.661995 28.7634 1.00666 30.2047 1.696C31.7087 2.32266 32.9621 3.23133 33.9647 4.422C34.9674 5.55 35.7194 6.89733 36.2207 8.46399C36.7847 9.968 37.0667 11.5973 37.0667 13.352V69C35.3747 69 33.7141 68.8747 32.0847 68.624C30.5181 68.3733 29.0767 67.872 27.7607 67.12C26.5074 66.3053 25.5047 65.1147 24.7527 63.548C24.0007 61.9813 23.6247 59.882 23.6247 57.25V16.454ZM68.0258 69H67.0858C65.4564 69 63.8898 68.8433 62.3858 68.53C60.8818 68.2167 59.5344 67.6527 58.3438 66.838C57.2158 66.0233 56.2758 64.8953 55.5238 63.454C54.8344 62.0127 54.4898 60.1327 54.4898 57.814V0.755999H55.9938C57.4978 0.755999 58.9704 0.943998 60.4118 1.32C61.8531 1.63333 63.1378 2.22866 64.2658 3.106C65.3938 3.92066 66.3024 5.04866 66.9918 6.49C67.6811 7.93133 68.0258 9.78 68.0258 12.036V69ZM88.6118 59.976C88.6118 61.0413 88.3924 62.1067 87.9538 63.172C87.5778 64.2373 86.9824 65.2087 86.1678 66.086C85.4158 66.9007 84.4131 67.59 83.1598 68.154C81.9691 68.718 80.5904 69 79.0238 69H78.6478C76.9558 69 75.5458 68.718 74.4178 68.154C73.2898 67.5273 72.3498 66.8067 71.5978 65.992C70.9084 65.1147 70.4071 64.206 70.0938 63.266C69.8431 62.2633 69.7178 61.386 69.7178 60.634C69.7178 60.1327 69.7178 59.694 69.7178 59.318C69.7804 58.8793 69.9058 58.4093 70.0938 57.908C70.9084 58.66 71.9111 59.036 73.1018 59.036C74.0418 59.036 74.8251 58.754 75.4518 58.19C76.0784 57.5633 76.3918 56.6547 76.3918 55.464V50.858C76.5171 50.7953 76.9244 50.764 77.6138 50.764C78.3658 50.7013 78.9611 50.67 79.3998 50.67C80.0891 50.67 80.9664 50.7953 82.0318 51.046C83.0971 51.234 84.0998 51.6727 85.0398 52.362C86.0424 53.0513 86.8884 54.0227 87.5778 55.276C88.2671 56.4667 88.6118 58.0333 88.6118 59.976ZM116.588 53.114C116.588 53.8033 116.619 54.524 116.682 55.276C116.807 55.9653 116.995 56.6233 117.246 57.25C117.559 57.814 117.966 58.284 118.468 58.66C119.032 59.036 119.784 59.224 120.724 59.224C121.852 59.224 122.854 58.848 123.732 58.096C123.92 58.5973 124.045 59.0673 124.108 59.506C124.233 59.882 124.296 60.3207 124.296 60.822C124.296 61.8247 124.108 62.8273 123.732 63.83C123.418 64.77 122.886 65.616 122.134 66.368C121.382 67.12 120.41 67.7467 119.22 68.248C118.092 68.6867 116.682 68.906 114.99 68.906C111.23 68.906 108.316 67.778 106.248 65.522C104.18 63.266 103.146 60.164 103.146 56.216V0.567996C104.838 0.567996 106.467 0.693329 108.034 0.943997C109.663 1.19466 111.104 1.72733 112.358 2.542C113.674 3.294 114.708 4.45333 115.46 6.02C116.212 7.58666 116.588 9.686 116.588 12.318V53.114ZM139.336 69H138.396C136.766 69 135.2 68.8433 133.696 68.53C132.192 68.2167 130.844 67.6527 129.654 66.838C128.526 66.0233 127.586 64.8953 126.834 63.454C126.144 62.0127 125.8 60.1327 125.8 57.814V0.755999H127.304C128.808 0.755999 130.28 0.943998 131.722 1.32C133.163 1.63333 134.448 2.22866 135.576 3.106C136.704 3.92066 137.612 5.04866 138.302 6.49C138.991 7.93133 139.336 9.78 139.336 12.036V69ZM186.369 69H185.429C183.8 69 182.233 68.8433 180.729 68.53C179.225 68.2167 177.878 67.6527 176.687 66.838C175.559 66.0233 174.619 64.8953 173.867 63.454C173.178 62.0127 172.833 60.1327 172.833 57.814V0.755999H174.337C175.841 0.755999 177.314 0.943998 178.755 1.32C180.196 1.63333 181.481 2.22866 182.609 3.106C183.737 3.92066 184.646 5.04866 185.335 6.49C186.024 7.93133 186.369 9.78 186.369 12.036V69ZM152.529 10.062C152.529 8.99666 152.717 7.93133 153.093 6.866C153.469 5.80066 154.064 4.82933 154.879 3.952C155.694 3.07466 156.696 2.38533 157.887 1.884C159.078 1.32 160.488 1.038 162.117 1.038C163.809 1.038 165.25 1.35133 166.441 1.97799C167.632 2.54199 168.572 3.26266 169.261 4.13999C170.013 4.95466 170.546 5.86333 170.859 6.866C171.235 7.806 171.423 8.652 171.423 9.404C171.423 9.90533 171.392 10.3753 171.329 10.814C171.329 11.19 171.235 11.6287 171.047 12.13C170.17 11.378 169.167 11.002 168.039 11.002C167.099 11.002 166.316 11.3153 165.689 11.942C165.062 12.506 164.749 13.3833 164.749 14.574V19.18C164.248 19.3053 163.621 19.368 162.869 19.368C161.992 19.368 160.958 19.274 159.767 19.086C158.576 18.8353 157.448 18.3653 156.383 17.676C155.318 16.9867 154.409 16.0467 153.657 14.856C152.905 13.6653 152.529 12.0673 152.529 10.062ZM206.767 10.062C206.767 12.0673 206.391 13.6653 205.639 14.856C204.887 16.0467 203.978 16.9867 202.913 17.676C201.848 18.3653 200.72 18.8353 199.529 19.086C198.338 19.274 197.304 19.368 196.427 19.368C195.675 19.368 195.048 19.3053 194.547 19.18V14.856C194.547 13.54 194.234 12.5687 193.607 11.942C192.98 11.3153 192.197 11.002 191.257 11.002C190.066 11.002 189.064 11.378 188.249 12.13C188.061 11.6287 187.936 11.19 187.873 10.814C187.873 10.3753 187.873 9.90533 187.873 9.404C187.873 8.652 188.03 7.806 188.343 6.866C188.719 5.86333 189.252 4.95466 189.941 4.13999C190.693 3.26266 191.633 2.54199 192.761 1.97799C193.952 1.35133 195.362 1.038 196.991 1.038C198.683 1.038 200.124 1.32 201.315 1.884C202.568 2.448 203.571 3.16866 204.323 4.046C205.138 4.86066 205.733 5.832 206.109 6.96C206.548 8.02533 206.767 9.05933 206.767 10.062ZM233.643 38.92H232.515C231.073 38.92 229.632 38.7633 228.191 38.45C226.749 38.1367 225.402 37.5727 224.149 36.758C222.958 35.8807 221.987 34.7213 221.235 33.28C220.483 31.776 220.107 29.896 220.107 27.64V12.036C220.107 9.78 220.483 7.93133 221.235 6.49C221.987 4.986 222.958 3.82667 224.149 3.012C225.402 2.13466 226.749 1.53933 228.191 1.226C229.632 0.912665 231.073 0.755999 232.515 0.755999H233.643V38.92ZM219.449 59.976C219.449 58.0333 219.825 56.4667 220.577 55.276C221.329 54.0227 222.237 53.0513 223.303 52.362C224.368 51.6727 225.496 51.234 226.687 51.046C227.877 50.7953 228.911 50.67 229.789 50.67C230.541 50.67 231.167 50.7327 231.669 50.858V55.558C231.669 57.8767 232.577 59.036 234.395 59.036C234.959 59.036 235.429 58.942 235.805 58.754C236.181 58.566 236.588 58.284 237.027 57.908C237.215 58.4093 237.309 59.036 237.309 59.788C237.371 60.54 237.403 61.1353 237.403 61.574C237.403 62.326 237.277 63.1407 237.027 64.018C236.776 64.8953 236.337 65.71 235.711 66.462C235.147 67.1513 234.332 67.7467 233.267 68.248C232.201 68.7493 230.854 69 229.225 69C227.533 69 226.06 68.718 224.807 68.154C223.616 67.59 222.613 66.9007 221.799 66.086C221.047 65.2087 220.451 64.2373 220.013 63.172C219.637 62.1067 219.449 61.0413 219.449 59.976ZM238.907 30.93H240.035C241.413 30.93 242.823 31.0867 244.265 31.4C245.769 31.7133 247.116 32.3087 248.307 33.186C249.56 34.0007 250.563 35.16 251.315 36.664C252.067 38.1053 252.443 39.954 252.443 42.21V57.814C252.443 60.07 252.067 61.95 251.315 63.454C250.563 64.8953 249.56 66.0547 248.307 66.932C247.116 67.7467 245.769 68.3107 244.265 68.624C242.823 68.9373 241.413 69.094 240.035 69.094H238.907V30.93ZM252.913 9.77999C252.913 11.7853 252.537 13.3833 251.785 14.574C251.033 15.7647 250.124 16.7047 249.059 17.394C247.993 18.0833 246.865 18.5533 245.675 18.804C244.484 18.992 243.45 19.086 242.573 19.086C241.821 19.086 241.194 19.0233 240.693 18.898V14.198C240.693 11.8793 239.784 10.72 237.967 10.72C237.403 10.72 236.933 10.814 236.557 11.002C236.181 11.19 235.773 11.472 235.335 11.848C235.147 11.3467 235.021 10.72 234.959 9.968C234.959 9.216 234.959 8.62066 234.959 8.182C234.959 7.43 235.084 6.61533 235.335 5.738C235.585 4.86066 235.993 4.07733 236.557 3.388C237.183 2.636 238.029 2.00933 239.095 1.50799C240.16 1.00666 241.507 0.755999 243.137 0.755999C244.829 0.755999 246.27 1.038 247.461 1.602C248.714 2.166 249.717 2.88667 250.469 3.764C251.283 4.57866 251.879 5.55 252.255 6.678C252.693 7.74333 252.913 8.77733 252.913 9.77999ZM283.396 69H282.456C280.827 69 279.26 68.8433 277.756 68.53C276.252 68.2167 274.905 67.6527 273.714 66.838C272.586 66.0233 271.646 64.8953 270.894 63.454C270.205 62.0127 269.86 60.1327 269.86 57.814V0.755999H271.364C272.868 0.755999 274.341 0.943998 275.782 1.32C277.223 1.63333 278.508 2.22866 279.636 3.106C280.764 3.92066 281.673 5.04866 282.362 6.49C283.051 7.93133 283.396 9.78 283.396 12.036V69ZM314.523 38.92H313.395C311.954 38.92 310.512 38.7633 309.071 38.45C307.63 38.1367 306.282 37.5727 305.029 36.758C303.838 35.8807 302.867 34.7213 302.115 33.28C301.363 31.776 300.987 29.896 300.987 27.64V12.036C300.987 9.78 301.363 7.93133 302.115 6.49C302.867 4.986 303.838 3.82667 305.029 3.012C306.282 2.13466 307.63 1.53933 309.071 1.226C310.512 0.912665 311.954 0.755999 313.395 0.755999H314.523V38.92ZM300.329 59.976C300.329 58.0333 300.705 56.4667 301.457 55.276C302.209 54.0227 303.118 53.0513 304.183 52.362C305.248 51.6727 306.376 51.234 307.567 51.046C308.758 50.7953 309.792 50.67 310.669 50.67C311.421 50.67 312.048 50.7327 312.549 50.858V55.558C312.549 57.8767 313.458 59.036 315.275 59.036C315.839 59.036 316.309 58.942 316.685 58.754C317.061 58.566 317.468 58.284 317.907 57.908C318.095 58.4093 318.189 59.036 318.189 59.788C318.252 60.54 318.283 61.1353 318.283 61.574C318.283 62.326 318.158 63.1407 317.907 64.018C317.656 64.8953 317.218 65.71 316.591 66.462C316.027 67.1513 315.212 67.7467 314.147 68.248C313.082 68.7493 311.734 69 310.105 69C308.413 69 306.94 68.718 305.687 68.154C304.496 67.59 303.494 66.9007 302.679 66.086C301.927 65.2087 301.332 64.2373 300.893 63.172C300.517 62.1067 300.329 61.0413 300.329 59.976ZM319.787 30.93H320.915C322.294 30.93 323.704 31.0867 325.145 31.4C326.649 31.7133 327.996 32.3087 329.187 33.186C330.44 34.0007 331.443 35.16 332.195 36.664C332.947 38.1053 333.323 39.954 333.323 42.21V57.814C333.323 60.07 332.947 61.95 332.195 63.454C331.443 64.8953 330.44 66.0547 329.187 66.932C327.996 67.7467 326.649 68.3107 325.145 68.624C323.704 68.9373 322.294 69.094 320.915 69.094H319.787V30.93ZM333.793 9.77999C333.793 11.7853 333.417 13.3833 332.665 14.574C331.913 15.7647 331.004 16.7047 329.939 17.394C328.874 18.0833 327.746 18.5533 326.555 18.804C325.364 18.992 324.33 19.086 323.453 19.086C322.701 19.086 322.074 19.0233 321.573 18.898V14.198C321.573 11.8793 320.664 10.72 318.847 10.72C318.283 10.72 317.813 10.814 317.437 11.002C317.061 11.19 316.654 11.472 316.215 11.848C316.027 11.3467 315.902 10.72 315.839 9.968C315.839 9.216 315.839 8.62066 315.839 8.182C315.839 7.43 315.964 6.61533 316.215 5.738C316.466 4.86066 316.873 4.07733 317.437 3.388C318.064 2.636 318.91 2.00933 319.975 1.50799C321.04 1.00666 322.388 0.755999 324.017 0.755999C325.709 0.755999 327.15 1.038 328.341 1.602C329.594 2.166 330.597 2.88667 331.349 3.764C332.164 4.57866 332.759 5.55 333.135 6.678C333.574 7.74333 333.793 8.77733 333.793 9.77999ZM380.35 69H379.41C377.781 69 376.214 68.8433 374.71 68.53C373.206 68.2167 371.859 67.6527 370.668 66.838C369.54 66.0233 368.6 64.8953 367.848 63.454C367.159 62.0127 366.814 60.1327 366.814 57.814V0.755999H368.318C369.822 0.755999 371.295 0.943998 372.736 1.32C374.178 1.63333 375.462 2.22866 376.59 3.106C377.718 3.92066 378.627 5.04866 379.316 6.49C380.006 7.93133 380.35 9.78 380.35 12.036V69ZM346.51 10.062C346.51 8.99666 346.698 7.93133 347.074 6.866C347.45 5.80066 348.046 4.82933 348.86 3.952C349.675 3.07466 350.678 2.38533 351.868 1.884C353.059 1.32 354.469 1.038 356.098 1.038C357.79 1.038 359.232 1.35133 360.422 1.97799C361.613 2.54199 362.553 3.26266 363.242 4.13999C363.994 4.95466 364.527 5.86333 364.84 6.866C365.216 7.806 365.404 8.652 365.404 9.404C365.404 9.90533 365.373 10.3753 365.31 10.814C365.31 11.19 365.216 11.6287 365.028 12.13C364.151 11.378 363.148 11.002 362.02 11.002C361.08 11.002 360.297 11.3153 359.67 11.942C359.044 12.506 358.73 13.3833 358.73 14.574V19.18C358.229 19.3053 357.602 19.368 356.85 19.368C355.973 19.368 354.939 19.274 353.748 19.086C352.558 18.8353 351.43 18.3653 350.364 17.676C349.299 16.9867 348.39 16.0467 347.638 14.856C346.886 13.6653 346.51 12.0673 346.51 10.062ZM400.748 10.062C400.748 12.0673 400.372 13.6653 399.62 14.856C398.868 16.0467 397.96 16.9867 396.894 17.676C395.829 18.3653 394.701 18.8353 393.51 19.086C392.32 19.274 391.286 19.368 390.408 19.368C389.656 19.368 389.03 19.3053 388.528 19.18V14.856C388.528 13.54 388.215 12.5687 387.588 11.942C386.962 11.3153 386.178 11.002 385.238 11.002C384.048 11.002 383.045 11.378 382.23 12.13C382.042 11.6287 381.917 11.19 381.854 10.814C381.854 10.3753 381.854 9.90533 381.854 9.404C381.854 8.652 382.011 7.806 382.324 6.866C382.7 5.86333 383.233 4.95466 383.922 4.13999C384.674 3.26266 385.614 2.54199 386.742 1.97799C387.933 1.35133 389.343 1.038 390.972 1.038C392.664 1.038 394.106 1.32 395.296 1.884C396.55 2.448 397.552 3.16866 398.304 4.046C399.119 4.86066 399.714 5.832 400.09 6.96C400.529 8.02533 400.748 9.05933 400.748 10.062ZM426.496 69C424.867 69 423.3 68.8433 421.796 68.53C420.292 68.2167 418.945 67.6527 417.754 66.838C416.626 66.0233 415.686 64.8953 414.934 63.454C414.245 62.0127 413.9 60.1327 413.9 57.814V12.036C413.9 9.90533 414.339 8.11933 415.216 6.678C416.094 5.174 417.19 4.01466 418.506 3.2C419.822 2.32266 421.264 1.696 422.83 1.32C424.46 0.943998 425.995 0.755999 427.436 0.755999V69H426.496ZM428.376 29.896H435.99C435.99 32.4653 435.52 34.6273 434.58 36.382C433.64 38.074 431.729 38.92 428.846 38.92H428.376V29.896ZM436.648 16.454C436.648 15.7647 436.586 15.0753 436.46 14.386C436.398 13.634 436.21 12.976 435.896 12.412C435.646 11.7853 435.238 11.284 434.674 10.908C434.173 10.532 433.452 10.344 432.512 10.344C431.322 10.344 430.319 10.72 429.504 11.472C429.128 10.4693 428.94 9.56066 428.94 8.746C428.94 7.74333 429.097 6.772 429.41 5.832C429.786 4.82933 430.35 3.952 431.102 3.2C431.854 2.448 432.794 1.85266 433.922 1.414C435.113 0.912662 436.554 0.661995 438.246 0.661995C440.126 0.661995 441.787 1.00666 443.228 1.696C444.732 2.32266 445.986 3.23133 446.988 4.422C447.991 5.55 448.743 6.89733 449.244 8.46399C449.808 9.968 450.09 11.5973 450.09 13.352V69C448.398 69 446.738 68.8747 445.108 68.624C443.542 68.3733 442.1 67.872 440.784 67.12C439.531 66.3053 438.528 65.1147 437.776 63.548C437.024 61.9813 436.648 59.882 436.648 57.25V16.454Z" fill="white"/>
</svg>
