<svg width="231" height="36" viewBox="0 0 231 36" fill="none" xmlns="http://www.w3.org/2000/svg">
<path d="M7.23937 35.448C6.40737 35.448 5.60737 35.368 4.83937 35.208C4.07137 35.048 3.38337 34.76 2.77537 34.344C2.19937 33.928 1.71937 33.352 1.33537 32.616C0.983373 31.88 0.807373 30.92 0.807373 29.736V6.36003C0.807373 5.27203 1.03137 4.36003 1.47937 3.62403C1.92737 2.85603 2.48737 2.26403 3.15937 1.84803C3.83137 1.40003 4.56737 1.08003 5.36737 0.888029C6.19937 0.696029 6.98337 0.600029 7.71937 0.600029V35.448H7.23937ZM8.19937 15.48H12.0874C12.0874 16.792 11.8474 17.896 11.3674 18.792C10.8874 19.656 9.91137 20.088 8.43937 20.088H8.19937V15.48ZM12.4234 8.61603C12.4234 8.26403 12.3914 7.91203 12.3274 7.56003C12.2954 7.17603 12.1994 6.84003 12.0394 6.55203C11.9114 6.23203 11.7034 5.97603 11.4154 5.78403C11.1594 5.59203 10.7914 5.49603 10.3114 5.49603C9.70337 5.49603 9.19137 5.68803 8.77537 6.07203C8.58337 5.56003 8.48737 5.09603 8.48737 4.68003C8.48737 4.16803 8.56737 3.67203 8.72737 3.19203C8.91937 2.68003 9.20737 2.23203 9.59137 1.84803C9.97537 1.46403 10.4554 1.16003 11.0314 0.936028C11.6394 0.680027 12.3754 0.552027 13.2394 0.552027C14.1994 0.552027 15.0474 0.728028 15.7834 1.08003C16.5514 1.40003 17.1914 1.86403 17.7034 2.47203C18.2154 3.04803 18.5994 3.73603 18.8554 4.53603C19.1434 5.30403 19.2874 6.13603 19.2874 7.03203V35.448C18.4234 35.448 17.5754 35.384 16.7434 35.256C15.9434 35.128 15.2074 34.872 14.5354 34.488C13.8954 34.072 13.3834 33.464 12.9994 32.664C12.6154 31.864 12.4234 30.792 12.4234 29.448V8.61603ZM35.0962 35.448H34.6162C33.7842 35.448 32.9842 35.368 32.2162 35.208C31.4482 35.048 30.7602 34.76 30.1522 34.344C29.5762 33.928 29.0962 33.352 28.7122 32.616C28.3602 31.88 28.1842 30.92 28.1842 29.736V0.600029H28.9522C29.7202 0.600029 30.4722 0.696029 31.2082 0.888029C31.9442 1.04803 32.6002 1.35203 33.1762 1.80003C33.7522 2.21603 34.2162 2.79203 34.5682 3.52803C34.9202 4.26403 35.0962 5.20803 35.0962 6.36003V35.448ZM45.6082 30.84C45.6082 31.384 45.4962 31.928 45.2722 32.472C45.0802 33.016 44.7762 33.512 44.3602 33.96C43.9762 34.376 43.4642 34.728 42.8242 35.016C42.2162 35.304 41.5122 35.448 40.7122 35.448H40.5202C39.6562 35.448 38.9362 35.304 38.3602 35.016C37.7842 34.696 37.3042 34.328 36.9202 33.912C36.5682 33.464 36.3122 33 36.1522 32.52C36.0242 32.008 35.9602 31.56 35.9602 31.176C35.9602 30.92 35.9602 30.696 35.9602 30.504C35.9922 30.28 36.0562 30.04 36.1522 29.784C36.5682 30.168 37.0802 30.36 37.6882 30.36C38.1682 30.36 38.5682 30.216 38.8882 29.928C39.2082 29.608 39.3682 29.144 39.3682 28.536V26.184C39.4322 26.152 39.6402 26.136 39.9922 26.136C40.3762 26.104 40.6802 26.088 40.9042 26.088C41.2562 26.088 41.7042 26.152 42.2482 26.28C42.7922 26.376 43.3042 26.6 43.7842 26.952C44.2962 27.304 44.7282 27.8 45.0802 28.44C45.4322 29.048 45.6082 29.848 45.6082 30.84ZM59.8939 27.336C59.8939 27.688 59.9099 28.056 59.9419 28.44C60.0059 28.792 60.1019 29.128 60.2299 29.448C60.3899 29.736 60.5979 29.976 60.8539 30.168C61.1419 30.36 61.5259 30.456 62.0059 30.456C62.5819 30.456 63.0939 30.264 63.5419 29.88C63.6379 30.136 63.7019 30.376 63.7339 30.6C63.7979 30.792 63.8299 31.016 63.8299 31.272C63.8299 31.784 63.7339 32.296 63.5419 32.808C63.3819 33.288 63.1099 33.72 62.7259 34.104C62.3419 34.488 61.8459 34.808 61.2379 35.064C60.6619 35.288 59.9419 35.4 59.0779 35.4C57.1579 35.4 55.6699 34.824 54.6139 33.672C53.5579 32.52 53.0299 30.936 53.0299 28.92V0.504028C53.8939 0.504028 54.7259 0.568028 55.5259 0.696028C56.3579 0.824028 57.0939 1.09603 57.7339 1.51203C58.4059 1.89603 58.9339 2.48803 59.3179 3.28803C59.7019 4.08803 59.8939 5.16003 59.8939 6.50403V27.336ZM71.5099 35.448H71.0299C70.1979 35.448 69.3979 35.368 68.6299 35.208C67.8619 35.048 67.1739 34.76 66.5659 34.344C65.9899 33.928 65.5099 33.352 65.1259 32.616C64.7739 31.88 64.5979 30.92 64.5979 29.736V0.600029H65.3659C66.1339 0.600029 66.8859 0.696029 67.6219 0.888029C68.3579 1.04803 69.0139 1.35203 69.5899 1.80003C70.1659 2.21603 70.6299 2.79203 70.9819 3.52803C71.3339 4.26403 71.5099 5.20803 71.5099 6.36003V35.448ZM95.5267 35.448H95.0467C94.2147 35.448 93.4147 35.368 92.6467 35.208C91.8787 35.048 91.1907 34.76 90.5827 34.344C90.0067 33.928 89.5267 33.352 89.1427 32.616C88.7907 31.88 88.6147 30.92 88.6147 29.736V0.600029H89.3827C90.1507 0.600029 90.9027 0.696029 91.6387 0.888029C92.3747 1.04803 93.0307 1.35203 93.6067 1.80003C94.1827 2.21603 94.6467 2.79203 94.9987 3.52803C95.3507 4.26403 95.5267 5.20803 95.5267 6.36003V35.448ZM78.2467 5.35203C78.2467 4.80803 78.3427 4.26403 78.5347 3.72003C78.7267 3.17603 79.0307 2.68003 79.4467 2.23203C79.8627 1.78403 80.3747 1.43203 80.9827 1.17603C81.5907 0.888028 82.3107 0.744028 83.1427 0.744028C84.0067 0.744028 84.7427 0.904027 85.3507 1.22403C85.9587 1.51203 86.4387 1.88003 86.7907 2.32803C87.1747 2.74403 87.4467 3.20803 87.6067 3.72003C87.7987 4.20003 87.8947 4.63203 87.8947 5.01603C87.8947 5.27203 87.8787 5.51203 87.8467 5.73603C87.8467 5.92803 87.7987 6.15203 87.7027 6.40803C87.2547 6.02403 86.7427 5.83203 86.1667 5.83203C85.6867 5.83203 85.2867 5.99203 84.9667 6.31203C84.6467 6.60003 84.4867 7.04803 84.4867 7.65603V10.008C84.2307 10.072 83.9107 10.104 83.5267 10.104C83.0787 10.104 82.5507 10.056 81.9427 9.96003C81.3347 9.83203 80.7587 9.59203 80.2147 9.24003C79.6707 8.88803 79.2067 8.40803 78.8227 7.80003C78.4387 7.19203 78.2467 6.37603 78.2467 5.35203ZM105.943 5.35203C105.943 6.37603 105.751 7.19203 105.367 7.80003C104.983 8.40803 104.519 8.88803 103.975 9.24003C103.431 9.59203 102.855 9.83203 102.247 9.96003C101.639 10.056 101.111 10.104 100.663 10.104C100.279 10.104 99.9587 10.072 99.7027 10.008V7.80003C99.7027 7.12803 99.5427 6.63203 99.2227 6.31203C98.9027 5.99203 98.5027 5.83203 98.0227 5.83203C97.4147 5.83203 96.9027 6.02403 96.4867 6.40803C96.3907 6.15203 96.3267 5.92803 96.2947 5.73603C96.2947 5.51203 96.2947 5.27203 96.2947 5.01603C96.2947 4.63203 96.3747 4.20003 96.5347 3.72003C96.7267 3.20803 96.9987 2.74403 97.3507 2.32803C97.7347 1.88003 98.2147 1.51203 98.7907 1.22403C99.3987 0.904027 100.119 0.744028 100.951 0.744028C101.815 0.744028 102.551 0.888028 103.159 1.17603C103.799 1.46403 104.311 1.83203 104.695 2.28003C105.111 2.69603 105.415 3.19203 105.607 3.76803C105.831 4.31203 105.943 4.84003 105.943 5.35203ZM119.667 20.088H119.091C118.355 20.088 117.619 20.008 116.883 19.848C116.147 19.688 115.459 19.4 114.819 18.984C114.211 18.536 113.715 17.944 113.331 17.208C112.947 16.44 112.755 15.48 112.755 14.328V6.36003C112.755 5.20803 112.947 4.26403 113.331 3.52803C113.715 2.76003 114.211 2.16803 114.819 1.75203C115.459 1.30403 116.147 1.00003 116.883 0.840029C117.619 0.680029 118.355 0.600029 119.091 0.600029H119.667V20.088ZM112.419 30.84C112.419 29.848 112.611 29.048 112.995 28.44C113.379 27.8 113.843 27.304 114.387 26.952C114.931 26.6 115.507 26.376 116.115 26.28C116.723 26.152 117.251 26.088 117.699 26.088C118.083 26.088 118.403 26.12 118.659 26.184V28.584C118.659 29.768 119.123 30.36 120.051 30.36C120.339 30.36 120.579 30.312 120.771 30.216C120.963 30.12 121.171 29.976 121.395 29.784C121.491 30.04 121.539 30.36 121.539 30.744C121.571 31.128 121.587 31.432 121.587 31.656C121.587 32.04 121.523 32.456 121.395 32.904C121.267 33.352 121.043 33.768 120.723 34.152C120.435 34.504 120.019 34.808 119.475 35.064C118.931 35.32 118.243 35.448 117.411 35.448C116.547 35.448 115.795 35.304 115.155 35.016C114.547 34.728 114.035 34.376 113.619 33.96C113.235 33.512 112.931 33.016 112.707 32.472C112.515 31.928 112.419 31.384 112.419 30.84ZM122.355 16.008H122.931C123.635 16.008 124.355 16.088 125.091 16.248C125.859 16.408 126.547 16.712 127.155 17.16C127.795 17.576 128.307 18.168 128.691 18.936C129.075 19.672 129.267 20.616 129.267 21.768V29.736C129.267 30.888 129.075 31.848 128.691 32.616C128.307 33.352 127.795 33.944 127.155 34.392C126.547 34.808 125.859 35.096 125.091 35.256C124.355 35.416 123.635 35.496 122.931 35.496H122.355V16.008ZM129.507 5.20803C129.507 6.23203 129.315 7.04803 128.931 7.65603C128.547 8.26403 128.083 8.74403 127.539 9.09603C126.995 9.44803 126.419 9.68803 125.811 9.81603C125.203 9.91203 124.675 9.96003 124.227 9.96003C123.843 9.96003 123.523 9.92803 123.267 9.86403V7.46403C123.267 6.28003 122.803 5.68803 121.875 5.68803C121.587 5.68803 121.347 5.73603 121.155 5.83203C120.963 5.92803 120.755 6.07203 120.531 6.26403C120.435 6.00803 120.371 5.68803 120.339 5.30403C120.339 4.92003 120.339 4.61603 120.339 4.39203C120.339 4.00803 120.403 3.59203 120.531 3.14403C120.659 2.69603 120.867 2.29603 121.155 1.94403C121.475 1.56003 121.907 1.24003 122.451 0.98403C122.995 0.728029 123.683 0.600029 124.515 0.600029C125.379 0.600029 126.115 0.74403 126.723 1.03203C127.363 1.32003 127.875 1.68803 128.259 2.13603C128.675 2.55203 128.979 3.04803 129.171 3.62403C129.395 4.16803 129.507 4.69603 129.507 5.20803ZM145.073 35.448H144.593C143.761 35.448 142.961 35.368 142.193 35.208C141.425 35.048 140.737 34.76 140.129 34.344C139.553 33.928 139.073 33.352 138.689 32.616C138.337 31.88 138.161 30.92 138.161 29.736V0.600029H138.929C139.697 0.600029 140.449 0.696029 141.185 0.888029C141.921 1.04803 142.577 1.35203 143.153 1.80003C143.729 2.21603 144.193 2.79203 144.545 3.52803C144.897 4.26403 145.073 5.20803 145.073 6.36003V35.448ZM160.968 20.088H160.392C159.656 20.088 158.92 20.008 158.184 19.848C157.448 19.688 156.76 19.4 156.12 18.984C155.512 18.536 155.016 17.944 154.632 17.208C154.248 16.44 154.056 15.48 154.056 14.328V6.36003C154.056 5.20803 154.248 4.26403 154.632 3.52803C155.016 2.76003 155.512 2.16803 156.12 1.75203C156.76 1.30403 157.448 1.00003 158.184 0.840029C158.92 0.680029 159.656 0.600029 160.392 0.600029H160.968V20.088ZM153.72 30.84C153.72 29.848 153.912 29.048 154.296 28.44C154.68 27.8 155.144 27.304 155.688 26.952C156.232 26.6 156.808 26.376 157.416 26.28C158.024 26.152 158.552 26.088 159 26.088C159.384 26.088 159.704 26.12 159.96 26.184V28.584C159.96 29.768 160.424 30.36 161.352 30.36C161.64 30.36 161.88 30.312 162.072 30.216C162.264 30.12 162.472 29.976 162.696 29.784C162.792 30.04 162.84 30.36 162.84 30.744C162.872 31.128 162.888 31.432 162.888 31.656C162.888 32.04 162.824 32.456 162.696 32.904C162.568 33.352 162.344 33.768 162.024 34.152C161.736 34.504 161.32 34.808 160.776 35.064C160.232 35.32 159.544 35.448 158.712 35.448C157.848 35.448 157.096 35.304 156.456 35.016C155.848 34.728 155.336 34.376 154.92 33.96C154.536 33.512 154.232 33.016 154.008 32.472C153.816 31.928 153.72 31.384 153.72 30.84ZM163.656 16.008H164.232C164.936 16.008 165.656 16.088 166.392 16.248C167.16 16.408 167.848 16.712 168.456 17.16C169.096 17.576 169.608 18.168 169.992 18.936C170.376 19.672 170.568 20.616 170.568 21.768V29.736C170.568 30.888 170.376 31.848 169.992 32.616C169.608 33.352 169.096 33.944 168.456 34.392C167.848 34.808 167.16 35.096 166.392 35.256C165.656 35.416 164.936 35.496 164.232 35.496H163.656V16.008ZM170.808 5.20803C170.808 6.23203 170.616 7.04803 170.232 7.65603C169.848 8.26403 169.384 8.74403 168.84 9.09603C168.296 9.44803 167.72 9.68803 167.112 9.81603C166.504 9.91203 165.976 9.96003 165.528 9.96003C165.144 9.96003 164.824 9.92803 164.568 9.86403V7.46403C164.568 6.28003 164.104 5.68803 163.176 5.68803C162.888 5.68803 162.648 5.73603 162.456 5.83203C162.264 5.92803 162.056 6.07203 161.832 6.26403C161.736 6.00803 161.672 5.68803 161.64 5.30403C161.64 4.92003 161.64 4.61603 161.64 4.39203C161.64 4.00803 161.704 3.59203 161.832 3.14403C161.96 2.69603 162.168 2.29603 162.456 1.94403C162.776 1.56003 163.208 1.24003 163.752 0.98403C164.296 0.728029 164.984 0.600029 165.816 0.600029C166.68 0.600029 167.416 0.74403 168.024 1.03203C168.664 1.32003 169.176 1.68803 169.56 2.13603C169.976 2.55203 170.28 3.04803 170.472 3.62403C170.696 4.16803 170.808 4.69603 170.808 5.20803ZM194.581 35.448H194.101C193.269 35.448 192.469 35.368 191.701 35.208C190.933 35.048 190.245 34.76 189.637 34.344C189.061 33.928 188.581 33.352 188.197 32.616C187.845 31.88 187.669 30.92 187.669 29.736V0.600029H188.437C189.205 0.600029 189.957 0.696029 190.693 0.888029C191.429 1.04803 192.085 1.35203 192.661 1.80003C193.237 2.21603 193.701 2.79203 194.053 3.52803C194.405 4.26403 194.581 5.20803 194.581 6.36003V35.448ZM177.301 5.35203C177.301 4.80803 177.397 4.26403 177.589 3.72003C177.781 3.17603 178.085 2.68003 178.501 2.23203C178.917 1.78403 179.429 1.43203 180.037 1.17603C180.645 0.888028 181.365 0.744028 182.197 0.744028C183.061 0.744028 183.797 0.904027 184.405 1.22403C185.013 1.51203 185.493 1.88003 185.845 2.32803C186.229 2.74403 186.501 3.20803 186.661 3.72003C186.853 4.20003 186.949 4.63203 186.949 5.01603C186.949 5.27203 186.933 5.51203 186.901 5.73603C186.901 5.92803 186.853 6.15203 186.757 6.40803C186.309 6.02403 185.797 5.83203 185.221 5.83203C184.741 5.83203 184.341 5.99203 184.021 6.31203C183.701 6.60003 183.541 7.04803 183.541 7.65603V10.008C183.285 10.072 182.965 10.104 182.581 10.104C182.133 10.104 181.605 10.056 180.997 9.96003C180.389 9.83203 179.813 9.59203 179.269 9.24003C178.725 8.88803 178.261 8.40803 177.877 7.80003C177.493 7.19203 177.301 6.37603 177.301 5.35203ZM204.997 5.35203C204.997 6.37603 204.805 7.19203 204.421 7.80003C204.037 8.40803 203.573 8.88803 203.029 9.24003C202.485 9.59203 201.909 9.83203 201.301 9.96003C200.693 10.056 200.165 10.104 199.717 10.104C199.333 10.104 199.013 10.072 198.757 10.008V7.80003C198.757 7.12803 198.597 6.63203 198.277 6.31203C197.957 5.99203 197.557 5.83203 197.077 5.83203C196.469 5.83203 195.957 6.02403 195.541 6.40803C195.445 6.15203 195.381 5.92803 195.349 5.73603C195.349 5.51203 195.349 5.27203 195.349 5.01603C195.349 4.63203 195.429 4.20003 195.589 3.72003C195.781 3.20803 196.053 2.74403 196.405 2.32803C196.789 1.88003 197.269 1.51203 197.845 1.22403C198.453 0.904027 199.173 0.744028 200.005 0.744028C200.869 0.744028 201.605 0.888028 202.213 1.17603C202.853 1.46403 203.365 1.83203 203.749 2.28003C204.165 2.69603 204.469 3.19203 204.661 3.76803C204.885 4.31203 204.997 4.84003 204.997 5.35203ZM218.145 35.448C217.313 35.448 216.513 35.368 215.745 35.208C214.977 35.048 214.289 34.76 213.681 34.344C213.105 33.928 212.625 33.352 212.241 32.616C211.889 31.88 211.713 30.92 211.713 29.736V6.36003C211.713 5.27203 211.937 4.36003 212.385 3.62403C212.833 2.85603 213.393 2.26403 214.065 1.84803C214.737 1.40003 215.473 1.08003 216.273 0.888029C217.105 0.696029 217.889 0.600029 218.625 0.600029V35.448H218.145ZM219.105 15.48H222.993C222.993 16.792 222.753 17.896 222.273 18.792C221.793 19.656 220.817 20.088 219.345 20.088H219.105V15.48ZM223.329 8.61603C223.329 8.26403 223.297 7.91203 223.233 7.56003C223.201 7.17603 223.105 6.84003 222.945 6.55203C222.817 6.23203 222.609 5.97603 222.321 5.78403C222.065 5.59203 221.697 5.49603 221.217 5.49603C220.609 5.49603 220.097 5.68803 219.681 6.07203C219.489 5.56003 219.393 5.09603 219.393 4.68003C219.393 4.16803 219.473 3.67203 219.633 3.19203C219.825 2.68003 220.113 2.23203 220.497 1.84803C220.881 1.46403 221.361 1.16003 221.937 0.936028C222.545 0.680027 223.281 0.552027 224.145 0.552027C225.105 0.552027 225.953 0.728028 226.689 1.08003C227.457 1.40003 228.097 1.86403 228.609 2.47203C229.121 3.04803 229.505 3.73603 229.761 4.53603C230.049 5.30403 230.193 6.13603 230.193 7.03203V35.448C229.329 35.448 228.481 35.384 227.649 35.256C226.849 35.128 226.113 34.872 225.441 34.488C224.801 34.072 224.289 33.464 223.905 32.664C223.521 31.864 223.329 30.792 223.329 29.448V8.61603Z" fill="#EEF0E5"/>
</svg>
