<svg width="32" height="21" viewBox="0 0 32 21" fill="none" xmlns="http://www.w3.org/2000/svg">
<path d="M12.8333 10.5C12.8333 11.3399 13.167 12.1453 13.7608 12.7392C14.3547 13.333 15.1601 13.6667 16 13.6667C16.8399 13.6667 17.6453 13.333 18.2392 12.7392C18.833 12.1453 19.1667 11.3399 19.1667 10.5C19.1667 9.66015 18.833 8.85469 18.2392 8.26083C17.6453 7.66696 16.8399 7.33333 16 7.33333C15.1601 7.33333 14.3547 7.66696 13.7608 8.26083C13.167 8.85469 12.8333 9.66015 12.8333 10.5Z" stroke="black" stroke-width="2" stroke-linecap="round" stroke-linejoin="round"/>
<path d="M30.25 10.5C26.45 16.8333 21.7 20 16 20C10.3 20 5.55 16.8333 1.75 10.5C5.55 4.16667 10.3 1 16 1C21.7 1 26.45 4.16667 30.25 10.5Z" stroke="black" stroke-width="2" stroke-linecap="round" stroke-linejoin="round"/>
</svg>
