<svg width="54" height="54" viewBox="0 0 54 54" fill="none" xmlns="http://www.w3.org/2000/svg">
<rect width="54" height="54" rx="10" fill="white"/>
<path d="M23.6176 21.5V18.75C23.6176 18.0207 23.9027 17.3212 24.4102 16.8055C24.9176 16.2897 25.6059 16 26.3235 16H35.7941C36.5118 16 37.2 16.2897 37.7075 16.8055C38.2149 17.3212 38.5 18.0207 38.5 18.75V35.25C38.5 35.9793 38.2149 36.6788 37.7075 37.1945C37.2 37.7103 36.5118 38 35.7941 38H26.3235C25.6059 38 24.9176 37.7103 24.4102 37.1945C23.9027 36.6788 23.6176 35.9793 23.6176 35.25V32.5M15.5 27H33.0882M33.0882 27L29.0294 22.875M33.0882 27L29.0294 31.125" stroke="#6E6E6E" stroke-width="2" stroke-linecap="round" stroke-linejoin="round"/>
</svg>
