<svg width="55" height="54" viewBox="0 0 55 54" fill="none" xmlns="http://www.w3.org/2000/svg">
<rect x="0.5" width="54" height="54" rx="10" fill="white"/>
<path d="M25.4528 17.6097C25.9734 15.4634 29.0266 15.4634 29.5472 17.6097C29.6253 17.9321 29.7785 18.2315 29.9942 18.4836C30.2099 18.7356 30.4821 18.9332 30.7886 19.0601C31.0951 19.1871 31.4272 19.2399 31.758 19.2143C32.0887 19.1886 32.4087 19.0853 32.692 18.9126C34.5779 17.7637 36.7376 19.9221 35.5887 21.8092C35.4162 22.0924 35.313 22.4122 35.2874 22.7427C35.2618 23.0733 35.3146 23.4052 35.4414 23.7115C35.5683 24.0178 35.7656 24.2898 36.0173 24.5055C36.2691 24.7212 36.5682 24.8744 36.8903 24.9528C39.0366 25.4734 39.0366 28.5266 36.8903 29.0472C36.5679 29.1253 36.2685 29.2785 36.0164 29.4942C35.7644 29.7099 35.5668 29.9821 35.4399 30.2886C35.3129 30.5951 35.2601 30.9272 35.2857 31.258C35.3114 31.5887 35.4147 31.9087 35.5874 32.192C36.7363 34.0779 34.5779 36.2376 32.6908 35.0887C32.4076 34.9162 32.0878 34.813 31.7573 34.7874C31.4267 34.7618 31.0948 34.8146 30.7885 34.9414C30.4822 35.0683 30.2102 35.2656 29.9945 35.5173C29.7788 35.7691 29.6256 36.0682 29.5472 36.3903C29.0266 38.5366 25.9734 38.5366 25.4528 36.3903C25.3747 36.0679 25.2215 35.7685 25.0058 35.5164C24.7901 35.2644 24.5179 35.0668 24.2114 34.9399C23.9049 34.8129 23.5728 34.7601 23.242 34.7857C22.9113 34.8114 22.5913 34.9147 22.308 35.0874C20.4221 36.2363 18.2624 34.0779 19.4113 32.1908C19.5838 31.9076 19.687 31.5878 19.7126 31.2573C19.7382 30.9267 19.6854 30.5948 19.5586 30.2885C19.4317 29.9822 19.2344 29.7102 18.9827 29.4945C18.7309 29.2788 18.4318 29.1256 18.1097 29.0472C15.9634 28.5266 15.9634 25.4734 18.1097 24.9528C18.4321 24.8747 18.7315 24.7215 18.9836 24.5058C19.2356 24.2901 19.4332 24.0179 19.5601 23.7114C19.6871 23.4049 19.7399 23.0728 19.7143 22.742C19.6886 22.4113 19.5853 22.0913 19.4126 21.808C18.2637 19.9221 20.4221 17.7624 22.3092 18.9113C23.5314 19.6544 25.1154 18.9969 25.4528 17.6097Z" stroke="#6E6E6E" stroke-width="2" stroke-linecap="round" stroke-linejoin="round"/>
<path d="M23.8333 27C23.8333 27.9725 24.2196 28.9051 24.9073 29.5927C25.5949 30.2804 26.5275 30.6667 27.5 30.6667C28.4725 30.6667 29.4051 30.2804 30.0927 29.5927C30.7804 28.9051 31.1667 27.9725 31.1667 27C31.1667 26.0275 30.7804 25.0949 30.0927 24.4073C29.4051 23.7196 28.4725 23.3333 27.5 23.3333C26.5275 23.3333 25.5949 23.7196 24.9073 24.4073C24.2196 25.0949 23.8333 26.0275 23.8333 27Z" stroke="#6E6E6E" stroke-width="2" stroke-linecap="round" stroke-linejoin="round"/>
</svg>
