<svg width="55" height="54" viewBox="0 0 55 54" fill="none" xmlns="http://www.w3.org/2000/svg">
<rect x="0.5" width="54" height="54" rx="10" fill="white"/>
<path d="M28.875 17.375H39.875M28.875 22.875H35.75M28.875 31.125H39.875M28.875 36.625H35.75M15.125 17.375C15.125 17.0103 15.2699 16.6606 15.5277 16.4027C15.7856 16.1449 16.1353 16 16.5 16H22C22.3647 16 22.7144 16.1449 22.9723 16.4027C23.2301 16.6606 23.375 17.0103 23.375 17.375V22.875C23.375 23.2397 23.2301 23.5894 22.9723 23.8473C22.7144 24.1051 22.3647 24.25 22 24.25H16.5C16.1353 24.25 15.7856 24.1051 15.5277 23.8473C15.2699 23.5894 15.125 23.2397 15.125 22.875V17.375ZM15.125 31.125C15.125 30.7603 15.2699 30.4106 15.5277 30.1527C15.7856 29.8949 16.1353 29.75 16.5 29.75H22C22.3647 29.75 22.7144 29.8949 22.9723 30.1527C23.2301 30.4106 23.375 30.7603 23.375 31.125V36.625C23.375 36.9897 23.2301 37.3394 22.9723 37.5973C22.7144 37.8551 22.3647 38 22 38H16.5C16.1353 38 15.7856 37.8551 15.5277 37.5973C15.2699 37.3394 15.125 36.9897 15.125 36.625V31.125Z" stroke="#6E6E6E" stroke-width="2" stroke-linecap="round" stroke-linejoin="round"/>
</svg>
