<svg width="54" height="54" viewBox="0 0 54 54" fill="none" xmlns="http://www.w3.org/2000/svg">
<rect width="54" height="54" rx="10" fill="white"/>
<path d="M23.3332 18.4444H20.8888C20.2405 18.4444 19.6187 18.702 19.1603 19.1604C18.7019 19.6188 18.4443 20.2406 18.4443 20.8889V35.5556C18.4443 36.2039 18.7019 36.8256 19.1603 37.284C19.6187 37.7425 20.2405 38 20.8888 38H33.111C33.7593 38 34.3811 37.7425 34.8395 37.284C35.2979 36.8256 35.5554 36.2039 35.5554 35.5556V20.8889C35.5554 20.2406 35.2979 19.6188 34.8395 19.1604C34.3811 18.702 33.7593 18.4444 33.111 18.4444H30.6666M23.3332 18.4444C23.3332 17.7961 23.5908 17.1744 24.0492 16.716C24.5076 16.2575 25.1294 16 25.7777 16H28.2221C28.8704 16 29.4922 16.2575 29.9506 16.716C30.409 17.1744 30.6666 17.7961 30.6666 18.4444M23.3332 18.4444C23.3332 19.0928 23.5908 19.7145 24.0492 20.1729C24.5076 20.6314 25.1294 20.8889 25.7777 20.8889H28.2221C28.8704 20.8889 29.4922 20.6314 29.9506 20.1729C30.409 19.7145 30.6666 19.0928 30.6666 18.4444M23.3332 27H30.6666M23.3332 31.8889H30.6666" stroke="#6E6E6E" stroke-width="2" stroke-linecap="round" stroke-linejoin="round"/>
</svg>
