<svg width="54" height="54" viewBox="0 0 54 54" fill="none" xmlns="http://www.w3.org/2000/svg">
<rect width="54" height="54" rx="10" fill="white"/>
<path d="M20.6113 38.5L24.4446 33.3889M32.1113 38.5L29.5557 33.3889L25.7224 29.5556L27.0002 21.8889M27.0002 21.8889L21.8891 23.1667L19.3335 27M27.0002 21.8889L30.8335 25.7222L34.6668 27M27.0002 16.7778C27.0002 17.1167 27.1348 17.4417 27.3744 17.6813C27.614 17.9209 27.9391 18.0556 28.2779 18.0556C28.6168 18.0556 28.9418 17.9209 29.1815 17.6813C29.4211 17.4417 29.5557 17.1167 29.5557 16.7778C29.5557 16.4389 29.4211 16.1139 29.1815 15.8743C28.9418 15.6346 28.6168 15.5 28.2779 15.5C27.9391 15.5 27.614 15.6346 27.3744 15.8743C27.1348 16.1139 27.0002 16.4389 27.0002 16.7778Z" stroke="#6E6E6E" stroke-width="2" stroke-linecap="round" stroke-linejoin="round"/>
</svg>
