<svg width="180" height="38" viewBox="0 0 180 38" fill="none" xmlns="http://www.w3.org/2000/svg">
<rect x="0.5" width="38" height="38" rx="10" fill="white"/>
<path d="M14 17V21H17V28H21V21H24L25 17H21V15C21 14.7348 21.1054 14.4804 21.2929 14.2929C21.4804 14.1054 21.7348 14 22 14H25V10H22C20.6739 10 19.4021 10.5268 18.4645 11.4645C17.5268 12.4021 17 13.6739 17 15V17H14Z" stroke="#323232" stroke-width="2" stroke-linecap="round" stroke-linejoin="round"/>
<rect x="47.5" width="38" height="37.9986" rx="10" fill="white"/>
<path d="M75.5 14.917V18.951C73.6861 18.771 71.9564 18.0961 70.5 17V21.5C70.4997 22.7211 70.1555 23.9175 69.5067 24.952C68.8579 25.9865 67.9308 26.8174 66.8317 27.3493C65.7325 27.8813 64.5057 28.0929 63.2919 27.9599C62.078 27.8268 60.9262 27.3545 59.9683 26.5971C59.0105 25.8397 58.2853 24.8278 57.876 23.6773C57.4667 22.5268 57.3898 21.2843 57.654 20.0921C57.9182 18.8999 58.5129 17.8062 59.37 16.9364C60.2271 16.0666 61.3118 15.4558 62.5 15.174V19.5C62.1591 19.7557 61.8892 20.0943 61.7159 20.4836C61.5427 20.8729 61.4718 21.3001 61.5101 21.7245C61.5484 22.1489 61.6945 22.5565 61.9346 22.9086C62.1747 23.2606 62.5008 23.5455 62.882 23.7361C63.2631 23.9266 63.6867 24.0166 64.1124 23.9975C64.5381 23.9783 64.9518 23.8507 65.3143 23.6266C65.6768 23.4026 65.976 23.0896 66.1836 22.7174C66.3911 22.3452 66.5 21.9261 66.5 21.5V10H70.583C70.7912 11.2284 71.3764 12.3616 72.2574 13.2426C73.1384 14.1236 74.2716 14.7088 75.5 14.917Z" stroke="#323232" stroke-width="2" stroke-linecap="round" stroke-linejoin="round"/>
<rect x="94.5" width="38" height="38" rx="10" fill="white"/>
<path d="M118.562 13.9375V13.9488M104.5 14.5C104.5 13.3065 104.974 12.1619 105.818 11.318C106.662 10.4741 107.807 10 109 10H118C119.193 10 120.338 10.4741 121.182 11.318C122.026 12.1619 122.5 13.3065 122.5 14.5V23.5C122.5 24.6935 122.026 25.8381 121.182 26.682C120.338 27.5259 119.193 28 118 28H109C107.807 28 106.662 27.5259 105.818 26.682C104.974 25.8381 104.5 24.6935 104.5 23.5V14.5ZM110.125 19C110.125 19.8951 110.481 20.7536 111.114 21.3865C111.746 22.0194 112.605 22.375 113.5 22.375C114.395 22.375 115.254 22.0194 115.886 21.3865C116.519 20.7536 116.875 19.8951 116.875 19C116.875 18.1049 116.519 17.2464 115.886 16.6135C115.254 15.9806 114.395 15.625 113.5 15.625C112.605 15.625 111.746 15.9806 111.114 16.6135C110.481 17.2464 110.125 18.1049 110.125 19Z" stroke="#323232" stroke-width="2" stroke-linecap="round" stroke-linejoin="round"/>
<rect x="141.5" width="38" height="38" rx="10" fill="white"/>
<path d="M156 17.875V23.5M156 14.5V14.5113M160.5 23.5V17.875M165 23.5V20.125C165 19.5283 164.763 18.956 164.341 18.534C163.919 18.1121 163.347 17.875 162.75 17.875C162.153 17.875 161.581 18.1121 161.159 18.534C160.737 18.956 160.5 19.5283 160.5 20.125M151.5 12.25C151.5 11.6533 151.737 11.081 152.159 10.659C152.581 10.2371 153.153 10 153.75 10H167.25C167.847 10 168.419 10.2371 168.841 10.659C169.263 11.081 169.5 11.6533 169.5 12.25V25.75C169.5 26.3467 169.263 26.919 168.841 27.341C168.419 27.7629 167.847 28 167.25 28H153.75C153.153 28 152.581 27.7629 152.159 27.341C151.737 26.919 151.5 26.3467 151.5 25.75V12.25Z" stroke="#323232" stroke-width="2" stroke-linecap="round" stroke-linejoin="round"/>
</svg>
